<svg version="1.1" id="Layer_1" xmlns="http://www.w3.org/2000/svg" xmlns:xlink="http://www.w3.org/1999/xlink" x="200px" y="150px"
	 viewBox="0 0 1883.877 1673.265" enable-background="new 0 0 1883.877 1673.265" xml:space="preserve">
<g>
	<path fill="#C11F61" d="M872.63,1588.492c2.245,4.602,65.129,22.467,88.296,31.532c-31.654,1.021-47.06-1.476-44.346,4.096
		c1.246,2.552,26.996,9.389,31.729,11.816c0.983,1.138,2.858,0.82,3.383-0.622c1.146-3.139-3.088-3.586-24.879-10.896
		c23.386-0.566,39.761,1.112,42.374-2.017l-96.752-35.215C872.326,1587.559,872.386,1587.992,872.63,1588.492z M947.943,1633.949
		c-0.002,0.004-0.003,0.008-0.004,0.012C947.94,1633.957,947.941,1633.953,947.943,1633.949z M947.937,1633.965
		c-0.001,0.002-0.002,0.005-0.003,0.007C947.935,1633.97,947.936,1633.967,947.937,1633.965z M947.932,1633.977
		c-0.001,0.003-0.001,0.005-0.002,0.007C947.931,1633.982,947.931,1633.98,947.932,1633.977z M947.928,1633.99
		c-0.001,0.002-0.001,0.004-0.002,0.006C947.927,1633.994,947.927,1633.992,947.928,1633.99z M947.924,1634.002
		c-0.001,0.001-0.002,0.003-0.002,0.005C947.922,1634.005,947.923,1634.003,947.924,1634.002z M947.919,1634.015
		c0,0.001-0.001,0.003-0.001,0.004C947.918,1634.018,947.919,1634.016,947.919,1634.015z M947.915,1634.027
		c0,0.001,0,0.003-0.001,0.004C947.915,1634.03,947.915,1634.028,947.915,1634.027z M947.912,1634.04L947.912,1634.04
		L947.912,1634.04z"/>
	<path fill="#BB3791" d="M1157.065,1060.074l203.806,74.179C1321.365,1116.414,1246.237,1089.913,1157.065,1060.074z"/>
	<path fill="#2919ED" d="M789.639,1217.439l-312.18-113.624c4.035,3.376,11.306,7.033,20.03,11.001
		c-8.051-1.669-22.459-3.644-18.595,4.279c14.602,29.929,735.441,244.288,748.512,269.506
		c-33.21,14.757-760.323-282.951-738.196-237.588c1.548,3.174,9.951,8.044,23.819,14.265l161.678,58.846
		c208.927,70.06,520.917,165.331,532.771,185.446c-5.424,2.048-26.322-2.886-57.723-12.542l35.089,12.771
		c15.952,3.62,25.42,4.295,26.549,1.191c10.268-28.174-701.004-230.788-718.518-261.544
		c33.092-14.099,728.078,268.886,738.409,240.563c1.628-4.488-6.608-9.167-14.831-13.302c8.215,2.042,14.683,3.015,19.271,3.094
		l-36.422-13.257C1098.201,1335.173,838.652,1236.194,789.639,1217.439z M482.524,1117.468
		c17.765-8.1,304.651,103.42,451.884,159.319C875.537,1257.573,492.633,1137.318,482.524,1117.468z"/>
	<path fill="#C57577" d="M1167.442,1449.312c-1.593,0.425-4.673,0.189-9.047-0.625l10.999,4.003
		c1.026-0.409,1.746-1.031,2.069-1.918c6.059-16.681-266.531-100.9-460.152-164.811l113.232,41.213
		C938.409,1363.746,1156.653,1434.379,1167.442,1449.312z"/>
	<path fill="#83B52F" d="M784.652,1514.176c4.713,9.661,178.003,59.583,213.612,75.965c-42.923-8.972-179.35-60.293-182.701-51.084
		c-3.255,8.951,133.374,46.104,169.531,62.189c-39.085-3.706-110.465-21.539-112.66-14.058l96.752,35.215
		c0.462-0.553,0.502-1.254,0.066-2.147c-2.214-4.542-59.998-20.883-86.461-30.83c50.033,5.656,115.399,22.977,110.218,12.363
		c-3.776-7.741-132.576-44.816-167.605-59.512c48.406,10.893,177.91,60.012,181.281,50.774
		c3.804-10.466-177.452-60.533-214.656-78.379c13.517,2.35,36.885,9.325,63.716,17.925l-52.439-19.086
		C790.106,1510.549,782.742,1510.255,784.652,1514.176z"/>
	<path fill="#8FB10B" d="M1264.679,1346.698c-17.295,9.485-315.002-106.303-499.485-175.739
		c87.874,28.754,200.661,64.869,296.833,97.105l-121.661-44.281c-193.707-63.082-461.155-148.44-467.957-165.463
		c2.056-1.194,8.329-0.514,18.084,1.722l-16.299-5.932c-2.901,0.233-4.973,1.07-5.613,2.829
		c-1.998,5.485,10.428,12.144,30.715,20.922c-17.663-4.424-23.762-4.248-26.451-3.016c-11.836,5.426,17.06,18.093,28.833,23.161
		c-7.846-1.945-25.265-6.554-27.436-0.593c-0.734,2.013,0.519,4.145,3.217,6.402l312.18,113.624
		c-5.142-1.968-7.974-3.055-8.055-3.086c138.748,45.264,448.959,143.553,457.594,161.476c-2.795,1.314-17.439-2.323-39.875-9.285
		l36.422,13.257c14.017,0.242,10.424-7.884-15.048-19.568c11.687,3.182,32.814,9.11,35.171,2.612
		c1.86-5.093-8.9-10.94-23.009-17.399c12.12,3.296,40.948,10.848,35.419-0.473c-0.364-0.746-0.993-1.596-2.075-2.603l-20.739-7.548
		C1256.846,1340.076,1263.631,1344.136,1264.679,1346.698z M474.513,1078.45c17.351-9.368,314.554,106.093,494.059,173.704
		C828.715,1206.366,482.666,1097.275,474.513,1078.45z M478.097,1098.803c17.643-8.884,304.767,102.665,483.013,169.792
		C922.02,1255.798,485.995,1115.576,478.097,1098.803z M1252.002,1361.449c-17.79,9.054-313.919-106.16-489.072-172.064
		C888.522,1230.473,1243.637,1342.534,1252.002,1361.449z"/>
	<path fill="#53B333" d="M746.685,1395.87l-115.685-42.106C654.88,1364.385,697.103,1379.294,746.685,1395.87z"/>
	<path fill="#81DF2F" d="M579.788,1302.971c-7.873,21.606,510.737,168.556,535.006,194.73
		c-34.085,5.172-497.133-178.391-504.644-157.744c-0.998,2.737,6.721,7.523,20.849,13.807l115.685,42.106
		c136.917,45.773,329.857,104.236,347.065,120.108c-7.38,0.504-30.248-5.945-62.057-16.374l48.459,17.638
		c13.338,2.733,20.1,2.387,17.887-2.146c-10.389-21.308-459.32-150.307-483.51-173.608c35.735-4.497,497.018,178.375,504.53,157.761
		c7.836-21.604-511.314-168.758-535.031-194.757c35.151-5.127,461.882,168.811,539.977,180.194l-23.14-8.422
		C982.537,1442.445,586.972,1283.229,579.788,1302.971z"/>
	<path fill="#614153" d="M552.446,1234.275c-25.434-5.845-33.919,1.358,8.028,19.063c-6.998-1.413-14.374-2.612-15.759,1.201
		c-1.632,4.488,8.057,9.781,25.149,17.124c-5.147-0.876-8.599-0.951-10.288-0.176c-4.24,1.943-1.063,5.623,7.995,10.675
		l206.394,75.121c156.461,51.144,342.98,108.802,357.858,125.104c-4.35,0.664-15.196-1.617-30.958-6.122l23.14,8.422
		c9.33,1.36,13.702,0.408,11.816-3.456c-0.969-1.987-4.73-4.625-11.13-7.9c8.044,2.011,20.682,5.246,22.424,0.463
		c1.379-3.793-4.881-7.621-14.538-12.31c34.079,8.925,35.16-0.417,7.583-13.146c9.761,2.677,23.807,6.518,29.234,4.353
		l-10.999-4.003c-50.807-9.45-276.9-97.15-391.981-140.222c11.369,3.72,32.003,10.319,58.129,18.71l-113.232-41.213
		c-86.296-28.485-156.903-52.935-180.164-65.574l-11.446-4.166C521.565,1219.84,529.829,1224.926,552.446,1234.275z
		 M548.826,1256.011c19.735-4.176,235.852,79.579,364.485,128.005C772.012,1337.824,561.486,1271.243,548.826,1256.011z
		 M561.877,1274.916c20.828-3.615,269.232,92.82,340.009,119.562C817.837,1367.042,576.206,1290.921,561.877,1274.916z
		 M1142.978,1472.291c-19.658,3.517-221.019-74.626-348.851-122.88C883.198,1378.466,1129.403,1456.308,1142.978,1472.291z
		 M1154.786,1461.285c-19.73,4.391-243.749-82.59-373.674-131.441C861.091,1355.968,1141.277,1444.095,1154.786,1461.285z
		 M927.395,1373.3c-155.487-50.924-379.22-121.398-391.392-137.257C558.259,1230.41,886.157,1357.842,927.395,1373.3z"/>
	<path fill="#B1C793" d="M773.964,1357.282l-206.394-75.121C595.475,1297.724,679.207,1326.308,773.964,1357.282z"/>
	<path fill="#9D7D91" d="M603.334,810.219c-6.387,17.539,245.132,97.718,467.737,170.039l-115.284-41.96
		c-174.936-56.832-336.644-110.21-348.344-126.21c0.465-0.026,0.995-0.026,1.579-0.002l-5.596-2.037
		C603.395,810.106,603.356,810.159,603.334,810.219z"/>
	<path fill="#13F9C1" d="M638.417,1373.893c9.416,19.296,409.569,134.276,437.607,156.933c-40.494,0-424.494-157.193-410.394-128.28
		c8.516,17.455,364.319,119.654,394.463,141.321c-30.84-1.235-244.166-82.054-326.896-104.389l89.097,32.429
		c108.9,37.078,250.858,88.189,242.687,71.448c-8.531-17.48-365.838-120.095-394.606-141.426
		c38.429,0.456,404.104,147.882,410.385,130.611c6.767-18.518-409.669-135.769-437.904-159.447
		c34.756-1.804,356.58,127.611,437.296,144.15l-48.459-17.638C902.702,1457.315,626.533,1349.521,638.417,1373.893z"/>
	<path fill="#DB118D" d="M700.583,1435.161c-5.392,14.803,306.394,102.363,340.486,124.003
		c-40.593-2.595-302.982-98.924-292.163-76.778c5.848,11.991,234.535,77.803,267.478,95.402
		c-33.83-5.228-163.926-53.249-213.078-64.277l52.439,19.086c73.918,23.694,174.134,59.733,167.164,45.446
		c-5.846-11.984-239.052-79.232-268.17-95.781c40.809,3.515,301.95,97.704,291.673,76.601
		c-7.446-15.266-309.917-102.073-340.473-121.866c14.244,0.859,61.034,16.074,116.354,34.909l-89.097-32.429
		C713.859,1434.256,701.651,1432.227,700.583,1435.161z"/>
	<path fill="#EFA305" d="M503.48,1184.854c14.539,29.803,664.973,217.218,683.116,245.825
		c-33.146,11.264-657.733-243.022-667.13-217.212c-0.307,0.844-0.287,1.742,0.234,2.755l11.446,4.166
		c-4.06-2.206-6.68-4.053-7.686-5.498c34.195-10.886,657.664,243.125,667.091,217.225c9.773-26.802-664.826-218.646-683.361-248.745
		c29.93-10.974,552.706,198.072,677.653,226.428l-35.089-12.771C976.832,1343.854,485.244,1147.446,503.48,1184.854z"/>
	<path fill="#47BD00" d="M674.707,1224.123l-161.678-58.846C544.346,1179.325,603.549,1200.262,674.707,1224.123z"/>
	<path fill="#6721D9" d="M1230,1138.469c-193.036-67.286,8.99,8.437-366.971-134.687c18.886,6.162,38.138,12.425,57.538,18.73
		l-155.625-56.643c-95.45-32.488-190.157-65.886-224.7-81.784l-17.106-6.226c1.943,3.638,8.406,7.367,15.303,10.888
		c-12.524-2.916-20.594-3.745-23.823-2.271c-26.992,12.304,143.784,68.627,425.752,160.218
		c279.058,90.648,298.643,106.547,388.674,132.906c4.661,1.942,35.489,14.937,36.799,19.842
		c-26.374,20.259-826.489-307.293-865.028-289.455c-4.211,1.947-3.351,4.957,1.023,8.635l15.719,5.721
		c-9.261-4.602-14.567-8.216-15.219-10.668c28.638-21.914,892.586,336.299,867.03,283.909c-1.168-2.394-4.892-5.799-16.753-11.736
		c5.833,1.317,16.872,3.915,22.021,1.93l-8.076-2.939C1345.481,1182.671,1285.076,1157.667,1230,1138.469z M516.138,890.161
		c9.638-7.054,75.581,24.063,263.541,86.26c80.546,30.329,160.579,61.216,247.807,94.419
		C932.161,1039.74,521.683,910.513,516.138,890.161z"/>
	<path fill="#01373D" d="M621.608,968.846c-23.867-8.199-129.115-45.754-133.8-32.904
		c-11.916,32.763,842.47,276.971,851.512,309.933c-26.941,20.22-806.859-299.822-857.783-286.124l6.233,2.269
		c73.579,1.418,843.901,316.802,855.342,285.227c2.331-6.388-11.387-16.957-120.878-55.73c26.511,9.112,104.2,36.695,127.738,35.803
		l-13.161-4.79c-84.232-16.884-467.453-166.473-679-241.07c54.284,18.672,120.817,40.565,190.988,63.448l-122.597-44.622
		c-97.559-32.382-176.676-60.054-208.646-75.941l-15.719-5.721C518.889,932.961,589.407,957.461,621.608,968.846z M491.577,937.193
		C491.578,937.193,491.578,937.193,491.577,937.193C491.578,937.193,491.578,937.193,491.577,937.193z M1184.745,1178.444
		C953.279,1098.807,497.852,960.288,491.6,937.312C510.396,923.078,950.497,1095.755,1184.745,1178.444z"/>
	<path fill="#99ED51" d="M903.004,862.848c-4.627-9.486-174.326-58.181-206.247-73.463c40.297,3.931,139.709,30.531,134.028,18.888
		c-1.403-2.874-34.889-11.989-40.062-14.781c-1.471-1.884-4.435-0.031-3.356,2.182c0.951,1.95,5.853,3.076,29.916,11.086
		c-60.167-8.688-133.387-29.277-127.766-17.771c4.641,9.518,175.759,58.605,206.561,73.614c-9.518-1.275-25.071-5.189-43.919-10.538
		l32.665,11.889C897.717,866.498,904.817,866.564,903.004,862.848z M791.027,795.404c0.001-0.004,0.003-0.008,0.004-0.012
		C791.029,795.396,791.028,795.4,791.027,795.404z M791.033,795.386c0-0.001,0.001-0.003,0.002-0.005
		C791.034,795.383,791.033,795.385,791.033,795.386z M791.038,795.372c0,0,0-0.001,0.001-0.001
		C791.038,795.371,791.038,795.371,791.038,795.372z"/>
	<path fill="#13B795" d="M479.049,961.533c-1.801,4.95,7.739,10.475,19.818,16.289c-30.108-6.771-38.241,1.889,4.893,20.945
		c-10.911-2.799-30.409-7.86-32.681-1.613c-1.521,4.179,5.234,8.33,9.203,10.657l69.042,25.129
		c-10.195-3.81-19.779-7.497-28.388-10.955c46.755,14.358,120.086,41.651,165.644,58.805
		c-28.202-9.434-66.023-22.204-101.635-34.885l563.256,205.008c33.66,11.623,69.344,24.349,96.499,35.123l47.71,17.365
		c4.884,0.771,12.22,1.668,13.676-2.33c1.896-5.216-8.938-11.313-24.964-18.611c46.952,12.57,45.114,0.481,19.657-12.219
		c8.417,2.006,25.032,6.099,27.159,0.262c0.308-0.849,0.151-1.801-0.445-2.849l-8.044-2.928c2.749,1.786,4.358,3.266,4.69,4.4
		c-9.164,6.423-82.867-24.158-143.703-45.364c-193.351-67.401,21.459,12.589-365.813-134.56
		c25.04,8.172,108.55,34.604,200.92,64.911l-92.7-33.74c-61.147-19.89-126.367-41.139-193.567-63.41
		c-171.551-64.315-243.236-82.861-246.432-94.06c0.868-0.643,2.528-0.929,4.926-0.883l-6.233-2.269
		C480.197,960.111,479.353,960.698,479.049,961.533z M494.043,1010.424c-16.614-7.86-18.88-11.024-19.159-11.896
		c16.202-10.972,346.174,117.307,526.859,185.342c-36.952-12.1-74.992-24.457-112.544-36.655
		C683.333,1080.34,566.822,1027.429,494.043,1010.424z M1302.28,1299.689c-0.782,0.505-4.591,1.521-22.618-2.935
		c-64.994-31.834-181.934-62.026-436.675-160.362C923.589,1162.61,1296.068,1280.736,1302.28,1299.689z M1313.97,1283.736
		c-16.061,10.961-331.747-111.897-529.856-186.465C801.416,1102.934,1308.554,1266.058,1313.97,1283.736z M729.289,1061.17
		c82.2,30.844,166.528,63.356,256.666,97.61c-142.118-46.395-501.723-160.066-507.507-179.163
		C488.271,972.802,550.989,1002.097,729.289,1061.17z"/>
	<path fill="#CB7339" d="M1352.861,1223.261c-1.766,1.346-7.294,1.023-16.05-0.732l13.161,4.79c3.686-0.14,6.055-0.971,6.68-2.688
		c8.061-22.121-374.613-139.428-630.45-224.346l122.597,44.622C1078.912,1119.948,1348.149,1205.634,1352.861,1223.261z"/>
	<path fill="#D55D97" d="M1251.095,1288.598c-46.858-14.603-118.387-41.228-164.323-58.537c17.476,5.852,39,13.107,61.43,20.852
		l-563.256-205.008c-12.299-4.379-24.337-8.748-35.621-12.965l-69.042-25.129c0.045,0.026,0.095,0.056,0.139,0.082
		c-13.903-1.573-14.915,5.226-3.467,12.339c-9.859-0.568-13.438,5.079-0.423,12.964c-8.957-0.531-23.305,4.881,27.403,26.228
		c-8.398-2.238-22.022-5.932-29.741-5.313l16.299,5.932c73.186,16.774,342.469,121.176,498.872,179.75
		c-15.616-5.124-32.026-10.482-48.999-16.009l121.661,44.281c81.502,27.319,151.065,51.852,183.415,66.758l20.739,7.548
		c-3.193-2.968-10.342-7.296-26.368-14.325c51.563,14.519,44.61,2.053,37.201-3.349c15.452,2.197,15.754-4.575,8.319-10.055
		c14.87,1.998,16.097-4.776,6.072-11.401c0.32,0.052,0.658,0.106,1.006,0.161l-47.71-17.365
		C1246.883,1286.902,1249.029,1287.759,1251.095,1288.598z M473.153,1011.943c0.738-0.471,4.12-1.38,19.225,2.124
		c73.206,34.536,167.132,55.806,437.933,160.352C684.299,1094.396,556.47,1036.54,488.67,1022.04
		C475.427,1015.506,473.43,1012.757,473.153,1011.943z M697.87,1098.436c-50.346-16.761-138.022-46.223-186.59-66.323
		C559.498,1046.333,643.664,1077.872,697.87,1098.436z M472.148,1024.576c0.684-0.421,3.547-1.178,15.211,1.284
		c69.651,34.115,187.59,63.241,429.141,156.895c-230.16-74.837-360.46-133.043-427.915-147.667
		C474.574,1028.27,472.447,1025.418,472.148,1024.576z M691,1109c-48.749-16.25-131.249-44.036-178.689-63.47
		C558.866,1059.401,637.293,1088.667,691,1109z M471.744,1037.523c0.71-0.421,3.653-1.16,15.54,1.384
		c69.17,33.41,185.488,62.558,425.898,155.697C863.849,1178.565,478.927,1056.797,471.744,1037.523z M1277.793,1330.914
		c-17.544,10.291-343.787-116.665-522.197-183.428c389.57,127.751,146.15,46.87,393.224,136.642
		C1254.925,1322.682,1274.772,1322.855,1277.793,1330.914z M1064.369,1248.43c48.015,16.024,130.923,43.968,177.108,63.18
		C1192.823,1296.797,1112.33,1266.601,1064.369,1248.43z M1286.015,1320.809c-0.772,0.467-4.256,1.327-19.509-2.276
		c-61.776-31.478-186.156-63.471-424.363-155.743c242.208,78.738,356.761,132.067,431.63,149.613
		C1284.017,1317.71,1285.744,1320.055,1286.015,1320.809z M1066.047,1236.016c49.322,16.435,137.602,46.118,185.2,66.078
		C1201.197,1287.033,1115.298,1254.709,1066.047,1236.016z M1293.864,1310.667c-0.739,0.462-4.08,1.329-18.706-2.055
		c-60.547-31.153-201.668-69.299-427.777-156.945c263.007,85.5,352.788,129.39,430.585,148.718
		C1291.532,1307.044,1293.58,1309.839,1293.864,1310.667z"/>
	<path fill="#550B67" d="M547.817,847.397c-1.954,5.359,9.646,11.661,24.784,18.578c-49.301-13.514-45.387-1.608-31.242,6.92
		c-6.228-1.199-16.84-3.249-18.597,1.582c-0.405,1.112-0.235,2.242,0.373,3.381l17.106,6.226
		c-8.399-3.866-13.256-6.701-13.685-8.232c0.799-0.573,5.226-1.899,29.079,4.428c75.063,34.981,134.241,44.04,454.729,167.22
		c-0.506-0.165-123.558-40.153-245.423-81.633l155.625,56.643c55.209,17.942,111.65,36.237,164.52,53.608
		c256.57,97.824,285.449,97.682,288.301,107.968c-1.205,0.88-3.544,1.091-6.829,0.753l8.076,2.939
		c1.243-0.479,2.147-1.223,2.547-2.32c1.593-4.383-5.805-8.804-10.303-11.379c20.073,3.492,29.78-3.674-12.128-22.298
		c11.615,3.071,33.483,8.967,35.885,2.375c1.41-3.873-9.488-10.748-29.765-19.905l-203.806-74.179
		c-246.061-82.335-599.033-190.071-605.448-211.304c3.93-2.794,23.406,1.406,53.991,10.59L574.8,848.147
		C558.584,844.591,549.022,844.083,547.817,847.397z M536.562,863.912c15.922-11.378,342.501,115.7,538.505,189.432
		c-38.205-12.515-77.572-25.302-116.433-37.925c-230.466-74.861-318.318-116.686-401.3-138.764
		C539.105,868.137,536.815,864.793,536.562,863.912z M591.724,891.113c41.659,13.477,96.969,33.777,137.958,49.066
		C688.506,926.287,631.973,906.871,591.724,891.113z M1177.56,1106.844c41.528,14.001,98.167,33.436,138.808,49.28
		C1274.7,1142.725,1218.577,1122.139,1177.56,1106.844z M1379.473,1170.72c-0.78,0.556-4.988,1.816-27.032-3.894
		c-75.256-34.497-151.15-50.284-455.496-167.265C964.663,1021.606,1373.849,1151.133,1379.473,1170.72z M1386.837,1152.786
		c-15.984,11.335-342.209-115.572-535.663-188.368C1057.076,1031.883,1381.13,1133.776,1386.837,1152.786z"/>
	<path fill="#E7EB6F" d="M1319.45,1264.726l8.044,2.928c-11.241-19.764-180.575-74.393-404.65-147.281l92.7,33.74
		C1144.824,1196.531,1291.457,1246.543,1319.45,1264.726z"/>
	<path fill="#6B5FC7" d="M642.595,797.768c6.11,12.527,252.427,83.569,281.076,100.44c-41.351-3.156-312.868-101.174-320.245-88.157
		l5.596,2.037c38.469,1.55,331.496,108.886,320.288,85.918c-6.089-12.484-250.273-82.93-280.747-100.25
		c32.345,3.439,183.261,55.745,236.261,66.199l-32.665-11.889C772.702,829.515,634.623,781.43,642.595,797.768z"/>
	<path fill="#8D0F03" d="M1402.96,1101.28c-29.656,18.898-818.254-305.42-829.747-273.855
		c-11.668,32.037,811.84,266.597,822.706,299.459c-25.63,17.841-679.026-247.573-821.12-278.737l30.808,11.213
		c186.18,55.904,784.099,296.523,794.118,268.892c11.625-31.903-811.572-266.746-822.703-299.45
		c29.342-19.207,814.592,304.446,829.803,273.661l-3.992-1.453C1402.88,1101.102,1402.927,1101.193,1402.96,1101.28z"/>
	<path fill="#7D7DC1" d="M1402.835,1101.011l3.992,1.453c0.376-0.76,0.287-1.734-0.299-2.936
		c-9.288-19.039-239.645-92.65-450.74-161.229l115.284,41.96C1241.896,1035.757,1395.685,1086.627,1402.835,1101.011z"/>
	<path fill="#775B21" d="M1122.95,853.593l-72.428-26.362C1066.164,833.959,1092.086,843.182,1122.95,853.593z"/>
	<path fill="#3D4175" d="M979.053,862.825c-1.349,3.704,4.801,7.561,24.207,15.443c-10.345-3.12-37.98-11.698-33.218-1.934
		c9.498,19.467,413.847,135.608,440.548,158.044c-36.471,1.861-445.57-163.237-452.385-144.486c-0.086,0.235-0.085,0.49-0.036,0.757
		l6.929,2.522c-0.938-0.591-1.721-1.146-2.312-1.653c38.553-1.897,467.029,172.384,452.243,142.065
		c-1.153-2.364-6.244-6.13-29.368-15.236c21.781,6.364,28.065,6.604,29.32,3.143c6.692-18.337-402.418-133.385-431.262-157.025
		c19.757-0.984,139.955,41.037,248.017,77.239l-146.074-53.167C1025.861,869.367,981.216,856.885,979.053,862.825z M974.533,875.582
		c19.961-0.644,178.119,59.85,286.998,99.768C1150.46,938.887,990.359,888.658,974.533,875.582z M1410.279,1019.822
		c-20.339,0.399-174.045-58.312-282.728-98.215C1236.906,957.535,1394.3,1006.868,1410.279,1019.822z"/>
	<path fill="#F3FD0F" d="M1014.901,829.235c-6.146,16.822,356.925,118.622,388.207,141.368
		c-40.907-0.929-416.641-154.377-403.082-126.58c8.828,18.103,379.55,124.443,407.156,145.993
		c-24.696,0.874-202.917-63.458-321.52-101.479l146.074,53.167c98.323,32.939,186.6,61.062,180.029,47.591
		c-8.789-18.023-378.12-124.073-407.026-145.893c38.132,0.578,397.133,146.002,403.338,128.938
		c6.178-16.879-356.156-118.33-388.153-141.328c36.478,1.162,300.396,105.99,366.669,118.54l-47.58-17.318
		C1231.552,897.295,1019.592,816.331,1014.901,829.235z"/>
	<path fill="#3371CD" d="M1233.485,795.335c-0.88-1.185-2.661-1.002-3.335,0.242l48.29,17.576
		C1278.709,808.104,1241.237,799.628,1233.485,795.335z"/>
	<path fill="#E72DF7" d="M1409.684,1054.286c-0.539,0.044-1.166,0.049-1.855,0.027l5.93,2.158c0.204-0.179,0.367-0.375,0.452-0.607
		c4.437-12.214-170.393-66.267-304.101-109.912l113.654,41.367C1315.49,1017.046,1398.365,1044.362,1409.684,1054.286z"/>
	<path fill="#F16BD3" d="M1401.292,947.213c-7.846-16.085-330.103-108.539-361.465-129.402
		c39.83,2.991,348.73,128.056,354.327,112.692c5.314-14.679-301.9-100.878-336.062-122.404
		c39.235,2.923,314.246,104.835,319.327,90.888c0.15-0.413,0.025-0.888-0.348-1.419l-27.275-9.927
		c10.199,3.832,17.794,7.041,21.802,9.399c-46.745-4.136-330.541-112.597-318.871-88.645
		c7.336,15.039,304.688,100.414,335.943,120.208c-45.557-3.864-366.996-137.044-353.998-110.41
		c0.956,1.961,6.615,5.065,15.851,9.037l72.428,26.362c100.46,33.887,253.172,80.338,273.341,94.108
		c-8.246-0.348-29.198-6.338-57.278-15.467l47.58,17.318C1397.658,951.646,1403.224,951.174,1401.292,947.213z"/>
	<path fill="#9775FB" d="M1209.911,836.728l126.985,46.219c4.649,1.649,8.97,3.219,12.9,4.695l27.275,9.927
		C1370.512,888.244,1285.744,861.255,1209.911,836.728z"/>
	<path fill="#C78FD9" d="M944.224,915.553c10.07,20.653,450.075,146.953,462.674,166.529c-0.232,2.318,3.061,3.074,3.86,0.879
		c7.032-19.304-434.81-143.711-462.222-168.289c35.682-3.098,448.523,156.44,465.223,141.8l-5.93-2.158
		C1358.443,1052.741,929.112,884.579,944.224,915.553z"/>
	<path fill="#D183D1" d="M1223.763,987.318l-113.654-41.367c-70.704-23.08-129.894-43.246-145.012-52.78l-6.929-2.522
		C960.376,902.788,1100.104,947.242,1223.763,987.318z"/>
	<path fill="#CB35DB" d="M1092.993,795.353c1.601,0.175,3.537,0.488,5.763,0.918l-10.73-3.905c-0.598,0.201-0.982,0.491-1.125,0.883
		c-3.866,10.609,170.953,61.666,249.994,89.698l-126.985-46.219C1155.925,819.267,1106.469,803.054,1092.993,795.353z"/>
	<path fill="#738FA5" d="M1350.489,864.669c3.756-10.287-172.73-59.033-210.216-76.769c33.885,4.446,135.508,32.689,138.111,25.549
		c0.035-0.097,0.05-0.196,0.056-0.296l-48.29-17.576c-0.047,0.088-0.105,0.166-0.14,0.265c-1.233,3.37,4.348,4.262,33.219,13.86
		c-49.95-9.028-128.167-31.149-130.639-24.343c-3.77,10.341,176.121,60.03,210.883,77.091
		c-40.115-5.504-238.318-75.839-255.445-70.085l10.73,3.905C1148.461,805.882,1346.406,875.894,1350.489,864.669z M1233.757,797.208
		c0.001-0.002,0.002-0.004,0.002-0.006C1233.759,797.204,1233.758,797.206,1233.757,797.208z M1233.76,797.201
		c0-0.001,0.001-0.003,0.002-0.004C1233.761,797.198,1233.76,797.199,1233.76,797.201z M1233.762,797.195
		c0.001-0.001,0.001-0.002,0.002-0.004C1233.763,797.192,1233.763,797.194,1233.762,797.195z M1233.764,797.189
		c0.001-0.001,0.001-0.002,0.002-0.003C1233.765,797.186,1233.765,797.188,1233.764,797.189z M1233.767,797.182
		c0,0,0-0.001,0.001-0.002C1233.767,797.181,1233.767,797.182,1233.767,797.182z M1233.769,797.176L1233.769,797.176
		L1233.769,797.176z"/>
	<path fill="#877B19" d="M1043.292,152.904c-5.867,16.049,335.166,111.566,366.719,133.585
		c-40.747-0.67-392.81-133.715-380.213-107.899c8.277,16.974,350.962,115.173,379.967,136.156
		c-19.559,0-110.485-30.633-199.904-60.23l118.824,43.248c53.181,16.372,90.359,25.57,85.875,16.38
		c-8.288-16.995-350.399-114.977-379.923-136.124c38.3,0.433,374.578,126.33,380.443,110.204c1.454-3.978-4.531-8.693-60.9-28.342
		c-95.432-33.266-284.036-90.4-305.693-105.156c17.021,0.891,84.272,24.211,156.559,49.52l-127.926-46.561
		C1057.07,152.115,1044.386,149.891,1043.292,152.904z"/>
	<path fill="#8BD33D" d="M999.797,251.48c1.175,2.409,6.359,6.107,30.682,15.456c-25.965-7.967-33.178-8.605-34.5-4.958
		c-6.269,17.215,368.267,122.284,399.042,145.306c-28.955-0.147-221.28-73.748-329.876-108.407l220.963,80.424
		c62.922,21.212,111.552,35.869,113.802,29.696c1.298-3.582-3.924-7.458-31.05-17.875c10.325,3.166,38.939,12.284,34.209,2.58
		c-8.642-17.713-370.005-121.391-398.571-142.865c38.405,0,355.45,123.21,399.077,122.701l-14.362-5.227
		C1308.778,349.944,986.97,225.165,999.797,251.48z M1000.928,263.735c21.441,0.648,165.329,55.513,268.206,92.885
		C1164.782,322.243,1018.152,276.447,1000.928,263.735z M1398.287,394.284c-21.435-0.65-165.284-55.495-268.043-92.826
		C1234.45,335.789,1381.059,381.575,1398.287,394.284z"/>
	<path fill="#590585" d="M1127.794,154.732c6.191,2.168,12.689,4.405,19.435,6.697
		C1140.52,159.087,1134.026,156.848,1127.794,154.732z"/>
	<path fill="#690B79" d="M1017.561,203.67c8.478,17.385,361.227,118.5,389.937,139.755c-40.629,0-413.104-141.604-400.039-114.814
		c0.158,0.323,0.447,0.678,0.836,1.057l175.871,64.012c98.482,32,204.281,65.643,219.294,76.87c-3.059,0-7.909-0.792-14.246-2.239
		l14.362,5.227c4.1-0.048,5.786-1.188,4.597-3.627c-8.6-17.625-367.443-120.535-396.009-141.945
		c40.588,0,413.125,141.567,400.066,114.826c-8.471-17.372-361.084-118.468-389.92-139.743c28.187,0,199.568,61.833,306.377,94.716
		l-118.824-43.248C1109.227,221.207,1010.5,189.21,1017.561,203.67z"/>
	<path fill="#E78529" d="M1097.809,601.861l-29.126-10.601C1075.54,594.291,1085.847,597.913,1097.809,601.861z"/>
	<path fill="#5B218B" d="M1016.72,528.349c-3.904,10.687,183.05,62.459,222.534,81.146c-42.539-8.76-207.981-73.333-211.698-63.126
		c-3.552,9.781,158.528,54.378,195.254,71.407c-35.946-4.844-160.066-40.994-162.982-32.984c-0.572,1.574,2.797,3.791,8.855,6.469
		l29.126,10.601c25.224,8.326,57.796,18.106,80.85,26.867c-5.51-1.055-10.764-2.123-15.766-3.178l23.22,8.452
		c3.221,0.278,4.392-0.228,4.847-1.482c2.669-7.313-83.491-29.806-121.48-44.967c41.302,6.463,158.225,40.596,161.092,32.708
		c3.536-9.693-154.524-53.204-194.346-70.994c44.938,9.736,207.293,73.134,210.985,62.975c0.975-2.669-10.065-7.938-27.767-14.624
		l-14.97-5.448c-57.264-20.219-154.6-48.879-180.243-61.287c13.776,2.592,44.62,12.743,79.721,24.699l-73.566-26.776
		C1022.273,527.035,1017.318,526.703,1016.72,528.349z"/>
	<path fill="#69C369" d="M982.413,340.308c-1.488,4.104,4.864,9.043,63.712,29.556c99.919,34.83,299.257,95.233,320.367,110.298
		c-40.888-1.417-398.677-145.925-385.592-119.109c8.184,16.774,346.922,113.94,376.925,135.019
		c-10.403-0.377-41.159-9.766-80.915-23.087l65.187,23.726c14.965,3.369,22.907,3.471,20.65-1.154
		c-8.184-16.774-347.036-113.974-376.935-135.027c39.377,1.471,379.731,137.869,385.719,121.406
		c6.075-16.666-352.9-117.325-384.138-139.897c38.938,0.609,376.114,132.59,393.094,120.129l-5.41-1.969
		c-29.387-1.981-227.44-74.489-327.105-106.131C1033.868,349.589,985.083,332.99,982.413,340.308z"/>
	<path fill="#79DBD9" d="M1204.475,592.169l14.97,5.448C1214.87,595.889,1209.849,594.066,1204.475,592.169z"/>
	<path fill="#DFEF15" d="M1326.36,540.563c-22.91-2.301-150.85-50.883-239.844-82.652c50.168,16.61,109.851,35.633,157.435,51.594
		l-114.845-41.8c-67.032-21.854-128.669-42.391-141.395-50.52c1.256,0.118,2.852,0.385,4.734,0.779l-9.699-3.53
		c-0.224,0.236-0.398,0.509-0.513,0.824c-1.155,3.173,2.359,6.922,38.4,20.076c-11.486-3.63-41.157-13.612-36.375-3.827
		c7.281,14.929,302.015,99.543,333.341,119.269c-41.727-3.044-339.362-115.743-328.122-92.661
		c6.797,13.931,277.704,91.67,309.907,110.805c-22.291-2.171-120.056-37.018-198.747-63.061l140.098,50.992
		c36.633,11.455,62.915,18.246,64.445,14.057c4.973-13.726-276.176-92.562-310.174-113.043
		c40.682,3.308,322.904,109.068,328.099,94.816c1.094-3.009-2.21-6.439-31.253-17.315c12.665,4.067,41.724,13.962,40.323,6.252
		l-12.887-4.69C1322.349,538.316,1324.745,539.538,1326.36,540.563z M989.712,431.261c22.659,2.368,145.229,48.771,233.521,80.411
		C1132.521,481.614,1009.02,443.257,989.712,431.261z"/>
	<path fill="#CFE7F7" d="M980.204,379.892c-5.835,15.963,333.935,111.159,366.681,133.534
		c-42.529-2.054-378.529-135.813-365.74-109.577c1.5,3.075,12.07,8.141,32.403,15.769c-13.505-4.144-27.588-8.574-30.801-5.184
		l9.699,3.53c31.022,6.495,143.713,49.087,227.955,79.524c-28.778-9.494-60.601-19.777-91.294-29.783l114.845,41.8
		c33.821,11.344,61.515,21.138,75.34,27.421l12.887,4.69c-0.072-0.399-0.202-0.831-0.445-1.328
		c-1.336-2.739-10.031-7.092-26.588-13.479c27.941,8.759,33.666,8.779,34.876,5.465c5.597-15.392-320.568-106.732-353.778-128.86
		c40.112,2.132,360.093,127.597,365.825,111.826c5.894-16.124-334.222-111.185-366.725-133.564
		c36.222,1.46,282.672,98.354,356.754,115.034l-65.187-23.726C1165.866,435.776,984.572,367.876,980.204,379.892z M1334.607,530.353
		c-22.119-1.99-147.204-49.475-237.736-82.107C1190.955,479.263,1316.159,518.357,1334.607,530.353z"/>
	<path fill="#C14327" d="M1104.611,617.438c1.33,2.724,30.955,10.69,35.941,13.314c1.499,1.835,4.387-0.035,3.328-2.211
		c-0.596-1.22-1.322-1.69-17.877-7.078c37.465,7.893,53.332,11.953,60.11,12.538l-23.22-8.452
		C1123.923,617.334,1100.996,610.006,1104.611,617.438z M1140.219,628.805c-0.001,0.002-0.001,0.004-0.002,0.006
		C1140.219,628.809,1140.219,628.807,1140.219,628.805z M1140.217,628.814c-0.001,0.001-0.001,0.001-0.001,0.002
		C1140.216,628.815,1140.216,628.815,1140.217,628.814z M1140.214,628.821C1140.214,628.821,1140.214,628.822,1140.214,628.821
		C1140.214,628.822,1140.214,628.821,1140.214,628.821z"/>
	<path fill="#9FDFC7" d="M995.648,478.692c-4.675,12.806,254.865,85.833,286.965,104.589
		c-37.351-3.346-270.399-85.555-274.899-73.188c-4.189,11.529,211.672,71.811,248.376,90.521
		c-33.526-5.976-179.937-61.821-225.704-71.809l73.566,26.776c69.852,23.793,156.567,54.735,159.199,47.484
		c4.268-11.698-215.684-72.853-249.15-90.927c39.167,4.068,270.049,85.427,274.517,73.151
		c4.709-12.898-254.782-85.745-286.985-104.6c26.604,2.701,158.206,50.834,239.201,76.161l-140.098-50.992
		C1044.273,487.205,997.693,473.067,995.648,478.692z"/>
	<path fill="#912593" d="M1392.198,159.818c-5.623-11.524-226.455-75.179-257.495-91.877
		c45.377,5.467,251.268,80.165,241.838,60.836c-4.755-9.747-179.683-59.95-212.63-75.718c17.18,2.566,50.458,11.852,84.371,21.376
		l-46.444-16.904c-28.358-7.275-48.235-10.967-45.308-4.962c4.76,9.761,182.028,60.696,213.08,75.936
		c-44.477-6.075-250.168-79.039-241.218-60.672c5.657,11.599,225.567,74.832,257.401,91.826
		c-41.444-6.195-234.297-83.017-268.125-84.248l24.801,9.027C1216.181,106.222,1401.137,178.161,1392.198,159.818z"/>
	<path fill="#A1FBDF" d="M1273.822,132.247l124.424,45.287C1389.74,170.416,1333.749,151.755,1273.822,132.247z"/>
	<path fill="#E537DD" d="M1346.189,237.048c-6.959-2.406-14.282-4.9-21.9-7.464C1331.914,232.229,1339.239,234.729,1346.189,237.048
		z"/>
	<path fill="#91C171" d="M1225.802,405.866l-108.538-39.505c-60.975-20.071-112.678-37.846-125.845-45.804l-6.424-2.338
		C986.916,330.127,1116.02,370.439,1225.802,405.866z"/>
	<path fill="#2D89CD" d="M1062.826,125.36c-1.621,4.474,25.383,15.511,64.968,29.372c6.233,2.115,12.727,4.355,19.435,6.697
		c94.639,32.155,237.8,75.104,260.088,89.387c-26.491-2.353-164.65-56.07-260.088-89.387c-6.746-2.292-13.244-4.529-19.435-6.697
		c-41.88-14.214-71.812-22.754-73.522-18.054c-5.632,15.42,321.382,107.027,354.62,129.161
		c-32.183-1.831-247.35-84.695-331.77-108.153l127.926,46.561c103.017,36.068,216.265,76.175,208.952,61.164
		c-2.193-4.496-29.361-15.07-67.81-28.364c-6.95-2.319-14.275-4.819-21.9-7.464c-98.064-33.014-243.965-77.501-264.629-90.998
		c27.616,2.347,169.288,57.918,264.629,90.998c7.617,2.564,14.941,5.058,21.9,7.464c42.083,14.042,70.301,21.392,66.427,13.447
		c-7.525-15.424-314.004-103.407-344.462-123.304c32.92,1.566,237.556,75.006,313.203,92.712l-44.374-16.151
		C1237.021,173.347,1066.881,114.225,1062.826,125.36z"/>
	<path fill="#CF77DB" d="M1352.753,95.711c-3.547-7.272-123.54-41.677-153.818-54.728c41.773,3.693,99.725,18.039,95.156,8.638
		c-1.289-2.641-28.137-9.747-33.036-12.282c-1.512-1.785-4.357,0.081-3.305,2.232c0.77,1.579,2.874,2.076,22.836,8.645
		c-9.95-1.156-24.946-3.387-37.921-5.317c-147.225-21.905,54.827,32.259,101.35,51.993c-30.496-5.149-97.071-25.791-142.177-37.362
		l46.444,16.904C1302.036,89.531,1357.384,105.226,1352.753,95.711z M1261.41,39.314c0.003-0.008,0.006-0.016,0.009-0.024
		C1261.416,39.298,1261.413,39.306,1261.41,39.314z M1261.421,39.284c-0.001,0.002-0.002,0.004-0.002,0.006
		C1261.419,39.288,1261.42,39.286,1261.421,39.284c0.001-0.002,0.001-0.004,0.002-0.006
		C1261.422,39.28,1261.422,39.282,1261.421,39.284z M1261.424,39.272c-0.001,0.002-0.001,0.004-0.002,0.006
		C1261.423,39.276,1261.423,39.274,1261.424,39.272c0.001-0.002,0.001-0.004,0.002-0.006
		C1261.425,39.268,1261.425,39.27,1261.424,39.272z M1261.426,39.265c0.001-0.001,0.002-0.003,0.002-0.005
		C1261.428,39.262,1261.427,39.264,1261.426,39.265z M1261.429,39.259c0-0.001,0.001-0.003,0.001-0.004
		C1261.43,39.256,1261.429,39.258,1261.429,39.259z M1261.431,39.253c0-0.001,0.001-0.003,0.001-0.004
		C1261.432,39.25,1261.431,39.251,1261.431,39.253z M1261.433,39.247c0-0.001,0-0.002,0.001-0.003
		C1261.433,39.245,1261.433,39.246,1261.433,39.247z M1261.435,39.24L1261.435,39.24L1261.435,39.24z"/>
	<path fill="#97A7B5" d="M991.188,284.795c8.62,17.677,368.768,120.982,397.63,142.517
		c-38.203-0.226-395.673-140.496-401.849-123.55c-1.383,3.804,4.307,8.148,43.347,22.427c-33.5-10.779-41.191-11.263-43.804-10.048
		c-1.17,0.544-1.652,1.243-1.517,2.079l6.424,2.338c-0.564-0.341-1.082-0.67-1.503-0.975
		c22.604,0.821,176.775,59.678,280.722,96.907c-46.452-15.449-103.061-33.568-153.375-50.129l108.538,39.505
		c72.926,23.534,137.323,44.912,150.238,54.375c-0.295-0.004-0.622-0.021-0.963-0.044l5.41,1.969
		c0.751-0.551,0.891-1.379,0.335-2.52c-1.313-2.691-7.702-7.013-40.919-19.235c39.239,12.673,45.19,12.18,46.447,8.713
		c6.22-17.018-363.676-120.837-394.469-143.648c40.29,0.288,415.054,148.651,401.666,121.212
		c-8.61-17.657-368.853-121.032-397.633-142.519c24.39,0.139,179.437,57.792,290.194,95.13l-220.963-80.424
		C1018.278,283.918,986.999,276.21,991.188,284.795z M1381.365,447.355c-22.657-0.793-178.337-60.276-282.625-97.584
		C1204.715,385.005,1363.092,434.037,1381.365,447.355z"/>
	<path fill="#112F21" d="M1409.117,220.534c-7.025-14.402-288.86-95.308-321.377-114.919
		c43.056,4.669,329.082,118.863,317.83,95.753c-6.578-13.484-274.687-90.839-304.308-108.754
		c41.878,4.109,309.004,108.652,297.991,86.051c-0.164-0.335-0.509-0.715-1.007-1.132l-124.424-45.287
		c-66.899-21.777-138.691-44.607-154.763-53.601c5.131,0.721,13.208,2.778,23.411,5.793l-24.801-9.027
		c-4.111-0.15-5.877,0.815-4.734,3.16c6.086,12.476,250.724,83.054,280.479,100.181c-41.557-4.467-308.438-107.891-297.771-85.983
		c6.572,13.472,274.511,90.791,304.28,108.736c-41.028-4.509-312.845-111.911-317.945-97.906
		c-5.111,14.075,288.922,96.717,321.815,117.285c-9.772-0.546-34.663-7.355-66.81-17.133l44.374,16.151
		C1400.55,224.395,1411.442,225.301,1409.117,220.534z"/>
	<path fill="#C35551" d="M1008.294,229.668c9.697,9.455,89.995,36.107,175.871,64.012L1008.294,229.668z"/>
	<path fill="#19ADD1" d="M864.893,246.02c5.594-15.373-321.684-107.281-355.429-129.422
		c39.827,3.064,341.98,123.711,347.482,108.623c0.258-0.709-0.208-1.583-1.321-2.604l-170.299-61.984
		c-74.52-24.067-148.555-47.786-164.682-57.89c2.783,0.249,6.734,1.008,11.673,2.199l-13.893-5.057
		c-2.97,0.173-4.148,1.163-3.191,3.124c7.343,15.054,304.899,100.491,336.22,120.304c-42.721-3.59-359.29-131.153-347.197-106.357
		c7.725,15.837,326.218,107.435,355.479,127.305C820.791,243.257,505.49,125.8,489.692,137.944l5.075,1.847
		C535.047,141.441,859.189,261.698,864.893,246.02z"/>
	<path fill="#310BF5" d="M882.822,313.645c-8.705-17.847-373.748-122.648-402.724-144.342
		c38.267,0.533,392.383,141.78,398.537,124.882c1.362-3.745-3.946-8.018-43.958-22.61c28.966,9.18,35.936,9.619,38.497,8.427
		c1.098-0.511,1.588-1.157,1.519-1.928l-6.057-2.205c0.377,0.233,0.724,0.459,1.029,0.673
		c-22.423-1.105-168.532-56.773-269.014-92.863c43.669,14.488,96.209,31.321,143.354,46.828l-108.69-39.56
		c-68.558-22.157-128.359-42.117-141.067-51.176c0.163,0.003,0.344,0.013,0.518,0.02l-5.075-1.847
		c-0.697,0.536-0.825,1.317-0.308,2.378c1.239,2.541,7.096,6.565,36.723,17.589c-35.577-11.424-41.974-11.341-43.27-7.785
		c-6.147,16.9,359.665,119.528,390.841,142.323c-40.652-0.762-411.727-150.02-398.314-122.533
		c8.781,17.999,374.488,122.74,402.811,144.408c-22.911,0.491-155.565-46.634-264.169-82.616l152.39,55.465
		C835.609,309.583,888.063,324.384,882.822,313.645z M487.878,151.923c22.598,1.022,173.502,58.66,274.85,94.94
		C658.551,212.331,506.112,165.016,487.878,151.923z"/>
	<path fill="#A94300" d="M846.006,200.792c5.001-13.749-275.088-92.246-310.685-113.176
		c43.908,5.098,311.321,114.343,299.849,90.839c-6.201-12.714-256.571-84.985-286.657-102.386
		c24.067,2.433,118.344,34.006,187.752,54.588l-78.507-28.574c-63.279-19.771-120.312-36.632-115.1-25.953
		c6.214,12.741,256.456,84.929,286.652,102.384c-41.431-4.996-310.629-113.126-299.739-90.78
		c6.805,13.951,278.704,92.004,310.674,111.088c-39.976-3.938-289.25-100.835-321.819-98.936l13.893,5.057
		C598.31,120.859,841.184,214.046,846.006,200.792z"/>
	<path fill="#118BF7" d="M624.626,284.088l-155.903-56.744C489.869,239.188,553.336,260.812,624.626,284.088z"/>
	<path fill="#CD652F" d="M578.549,577.138c3.314,6.795,108.845,37.165,145.008,51.419c-51.546-11.301-107.278-31.658-102.062-20.958
		c2.108,4.32,68.111,22.864,74.982,27.234c0.824,1.47,3.027,1.316,3.614-0.295c1.61-4.422-11.239-6.701-59.946-23.201
		c55.615,13.389,93.127,26.613,95.158,21.04c2.985-8.195-111.322-38.916-148.164-54.514c26.075,4.018,93.993,23.537,140.402,34.781
		l-38.394-13.974C633.918,583.987,573.91,567.619,578.549,577.138z M696.337,633.182
		C696.337,633.183,696.337,633.183,696.337,633.182C696.337,633.183,696.337,633.183,696.337,633.182z"/>
	<path fill="#133D7D" d="M635.316,190.947l108.69,39.56c60.495,19.898,112.096,37.607,124.631,45.362l6.057,2.205
		C873.638,266.39,743.561,225.93,635.316,190.947z"/>
	<path fill="#792DD3" d="M813.773,145.33c-5.273-10.81-207.367-68.991-239.622-85.416c46.541,6.487,217.934,67.543,209.374,50.006
		c-3.974-8.148-144.969-48.707-176.305-62.736c17.185,1.728,39.161,5.838,58.504,9.282l-20.861-7.593
		c-144.783-23.279,90.329,42.387,130.687,60.442c-47.813-7.697-216.354-66.431-208.203-49.71
		c5.265,10.793,209.834,69.766,240.054,85.64c-23.034-2.729-89.189-24.274-149.643-43.163l78.507,28.574
		C782.433,144.348,817.598,153.177,813.773,145.33z"/>
	<path fill="#E1C749" d="M855.626,222.617c-11.384-10.443-91.112-36.409-170.299-61.984L855.626,222.617z"/>
	<path fill="#9DAF75" d="M655.495,343.84l115.023,41.865c48.01,16.017,88.205,30.132,105.258,38.311l11.417,4.155
		C877.528,415.241,763.414,378.613,655.495,343.84z"/>
	<path fill="#652341" d="M846.832,552.781c5.803-15.955-331.175-110.268-363.648-132.445
		c41.414,1.831,386.326,138.495,373.652,112.509c-8.263-16.94-350.989-115.249-380.755-136.407
		c39.197,1.313,382.652,139.014,388.674,122.478c0.222-0.609-0.05-1.332-0.753-2.154l-17.87-6.504
		c6.522,2.787,11.203,5.117,13.638,6.892c-38.754-1.11-382.702-139.06-388.736-122.48c-6.018,16.55,348.749,115.997,380.886,138.689
		c-40.769-1.532-386.409-138.517-373.748-112.546c7.895,16.181,332.524,109.305,363.413,130.122
		c-10.38-0.594-39.346-9.352-76.523-21.667l60.589,22.053C838.279,554.303,845.994,555.08,846.832,552.781z"/>
	<path fill="#9D219D" d="M656.439,441.216l120.583,43.889c29.67,10.035,54.217,18.79,69.11,25.154l17.87,6.504
		C853.999,505.058,753.551,472.563,656.439,441.216z"/>
	<path fill="#BDD7DF" d="M470.945,375.506c1.821,0.01,4.282,0.307,7.296,0.852l-9.917-3.609c-2.247,0.422-3.033,1.512-2.123,3.376
		c6.183,12.677,196.485,70.311,310.821,108.981l-120.583-43.889C569.392,413.118,485.039,385.946,470.945,375.506z"/>
	<path fill="#3DE1AB" d="M816.703,589.797c1.177-3.234-2.679-6.967-42.415-21.103c19.312,6.448,57.109,19.844,51.837,9.033
		c-1.423-2.916-11.526-7.73-30.988-15.003c34.219,10.995,38.523,10.235,39.664,7.098c5.444-14.961-308.804-103.003-342.344-124.706
		c34.083,2.224,261.949,89.376,333.196,106.206l-60.589-22.053c-104.484-34.612-273.853-97.337-277.983-86.007
		c-1.185,3.256,2.561,7.143,41.906,21.324c-11.011-3.465-39.794-13.117-35.105-3.496c2.031,4.163,21.767,12.198,61.159,25.733
		c-14.288-4.789-51.3-18.139-53.617-11.778c-5.011,13.765,274.401,91.9,309.497,112.774c-10.739-0.936-36.121-8.158-67.67-17.974
		l48.724,17.734C806.625,591.065,815.825,592.209,816.703,589.797z M820.479,577.869c-25.493-3.139-167.034-57.218-250.677-86.026
		C660.995,522.59,799.014,564.913,820.479,577.869z M829.218,567.835c-23.101-2.46-150.374-50.816-237.982-81.997
		C684.328,516.654,809.882,555.682,829.218,567.835z M499.429,460.888c22.732,2.552,142.545,47.869,228.734,78.725
		C639.216,510.14,518.886,472.769,499.429,460.888z M507.376,477.122c24.325,3.149,149.728,50.653,233.298,80.01
		C654.58,528.219,528.514,489.468,507.376,477.122z"/>
	<path fill="#117FE9" d="M872.584,496.068c-1.223-2.507-7.174-6.7-37.099-17.94c34.275,10.838,40.242,10.478,41.497,7.034
		c6.375-17.508-383.407-127.486-412.747-150.291c29.145-0.224,233.224,77.992,345.178,113.506L579.24,364.602
		c-71.026-24.074-125.049-40.169-119.624-29.044c1.287,2.639,7.747,7.122,41.275,19.553c-30.503-9.552-38.006-10.103-39.367-6.363
		c-6.381,17.533,375.718,124.686,406.373,147.964c-38.388-0.025-367.676-129.958-399.573-123.963l9.917,3.609
		C544.621,388.348,885.923,523.4,872.584,496.068z M872.124,483.429c-22.017-0.352-179.244-60.489-286.912-99.276
		C694.585,420.343,854.719,470.135,872.124,483.429z M466.409,350.48c21.958,0.408,176.852,59.572,283.549,98.072
		C641.874,412.771,483.916,363.686,466.409,350.48z"/>
	<path fill="#25C1CB" d="M774.168,619.513c3.973-10.925-192.53-65.434-228.166-83.286c41.198,6.308,245.65,82.198,249.825,70.723
		c4.484-12.332-238.127-80.308-270.432-98.622c31.85,3.107,202.083,63.903,266.58,79.251l-48.724-17.734
		c-90.46-28.146-231.629-77.624-223.737-61.425c5.851,11.995,238.399,79.112,269.888,96.307
		c-42.038-5.779-259.687-88.129-250.265-68.796c5.07,10.394,195.539,65.087,227.946,81.231
		c-15.202-1.957-45.758-9.939-77.937-18.493l38.394,13.974C753.69,618.979,773.012,622.687,774.168,619.513z"/>
	<path fill="#07E16B" d="M889.706,404.912c6.644-18.247-397.837-131.824-426.982-155.473c34.04-1.46,356.449,120.64,417.034,127.51
		l-18.388-6.693c-94.999-24.567-415.465-145.296-403.158-120.064c9.233,18.929,399.375,130.882,426.798,153.07
		c-35.973,1.237-402.56-140.642-427.137-131.351l8.427,3.067C524.283,283.286,883.423,422.189,889.706,404.912z"/>
	<path fill="#555B13" d="M882.148,461.945c-4.479-9.18-86.625-36.227-211.705-76.857c-33.34-10.83-192.866-61.502-208.362-73.773
		c37.259-0.864,417.611,149.915,424.088,132.128c1.373-3.777-5.007-7.817-27.934-16.881c20.193,5.954,25.842,6.096,28.052,5.07
		c1.771-0.82,2.007-1.989,0.906-3.461l-11.417-4.155c3.446,1.653,5.967,3.069,7.396,4.203c-20.791,0-169.827-56.969-277.496-96.404
		c50.974,16.736,112.535,36.439,164.842,53.89L655.495,343.84c-92.589-29.833-180.606-58.297-194.15-69.247
		c1.262-0.04,2.931,0.096,4.955,0.386l-8.427-3.067c-0.64,0.242-1.06,0.581-1.224,1.032c-1.388,3.811,5.113,7.924,28.955,17.298
		c-9.7-2.844-33.296-9.852-28.868-0.773c9.185,18.829,396.935,130.108,424.704,152.303
		c-37.062,0.886-417.65-149.864-424.106-132.127c-6.472,17.783,390.929,129.888,420.227,153.002
		c-24.799,0.441-183.7-59.193-298.32-98.044l230.172,83.776C855.741,463.074,886.301,470.461,882.148,461.945z M461.327,288.777
		c20.749,0,169.46,56.828,276.713,96.119C630.795,349.685,477.541,301.61,461.327,288.777z"/>
	<path fill="#D979BF" d="M889.202,373.797c-9.117-18.692-395.828-129.8-423.159-151.758
		c36.773-1.419,414.767,141.38,421.155,123.838c6.403-17.617-386.463-128.474-415.603-151.331
		c24.627-0.658,181.982,56.097,294.802,92.627l-152.39-55.465c-83.651-27.715-153.035-48.82-147.005-36.46
		C476,213.694,854.853,322.391,882.463,344.23c-37.193,1.35-414.713-141.445-421.126-123.839c-0.587,1.611,2.068,3.975,7.387,6.953
		l155.903,56.744c112.228,36.643,243.809,77.374,260.051,90.455c-4.013,0.177-12.097-1.388-23.307-4.287l18.388,6.693
		C887.221,377.795,890.714,376.894,889.202,373.797z"/>
	<path fill="#278BDB" d="M711.244,58.9c-1.421-2.913-35.578-12.209-40.821-15.051c-1.469-1.896-4.441-0.037-3.361,2.177
		c0.976,2.001,6.452,3.276,30.651,11.341c-10.793-1.433-27.631-4.277-42.143-6.728c-3.781-0.639-7.344-1.226-10.708-1.767
		l20.861,7.593C692.4,61.215,714.068,64.694,711.244,58.9z M670.721,45.755c0.001-0.001,0.001-0.003,0.002-0.005
		C670.723,45.751,670.722,45.753,670.721,45.755z M670.725,45.744C670.725,45.744,670.725,45.744,670.725,45.744
		C670.725,45.744,670.725,45.744,670.725,45.744z"/>
	<path fill="#57336B" d="M1451.041,977.398c-3.059,8.418,115.964,40.776,159.212,58.316
		c-43.535-10.159-139.613-44.689-142.338-37.198c-2.497,6.849,67.496,24.944,112.92,41.818
		c-53.453-11.678-87.299-24.298-82.839-15.16c1.755,3.601,51.029,17.265,57.109,20.855c0.895,1.361,2.979,1.134,3.543-0.414
		c1.249-3.438-4.276-4.537-39.491-16.127c55.512,13.016,79.236,21.543,75.218,13.299c-2.687-5.511-77.617-26.972-112.648-39.958
		c60.609,15.068,145.839,47.9,139.372,34.626c-3.71-7.604-131-44.117-161.78-57.561c6.415,0.969,14.944,2.793,24.864,5.177
		l-23.071-8.397C1455.155,975.904,1451.534,976.045,1451.041,977.398z M1554.898,1044.251c0,0.002-0.001,0.004-0.002,0.006
		C1554.897,1044.255,1554.898,1044.253,1554.898,1044.251z M1554.896,1044.258c-0.001,0.002-0.001,0.003-0.002,0.005
		C1554.895,1044.261,1554.895,1044.26,1554.896,1044.258z M1554.894,1044.264c-0.001,0.002-0.002,0.004-0.002,0.005
		C1554.892,1044.268,1554.893,1044.266,1554.894,1044.264z M1554.864,1044.355c0.008-0.026,0.017-0.053,0.025-0.079
		c0.001-0.002,0.002-0.004,0.003-0.006c-0.001,0.002-0.002,0.004-0.003,0.006C1554.88,1044.302,1554.871,1044.328,1554.864,1044.355
		c0,0.001-0.001,0.002-0.001,0.002S1554.864,1044.356,1554.864,1044.355z"/>
	<path fill="#6589CF" d="M1412.708,821.925c-5.406,14.787,305.787,102.143,339.554,123.679
		c-40.372-3.05-335.237-117.616-340.647-102.744c-5.278,14.435,291.426,97.355,326.365,118.885
		c-37.918-3.386-287.847-98.919-321.801-98.457l16.924,6.16c74.49,18.51,321.311,114.521,310.346,92.046
		c-7.142-14.645-294.939-97.232-326.287-116.731c45.617,3.655,352.809,125.963,340.401,100.512
		c-7.391-15.149-308.586-101.748-339.418-121.465c26.867,2.051,155.516,50.544,249.378,82.444l-206.083-75.008
		C1432.961,822.56,1414.042,818.25,1412.708,821.925z"/>
	<path fill="#85831D" d="M1732.743,889.785c-15.109-5.426-32.883-11.495-52.152-17.921
		C1699.615,878.643,1717.34,884.78,1732.743,889.785z"/>
	<path fill="#1799E3" d="M1582.787,923.927l144.272,52.511C1719.654,968.735,1652.747,946.644,1582.787,923.927z"/>
	<path fill="#4FCBF9" d="M1470.756,642.788c-4.647,12.718,217.765,77.732,316.578,113.008l-132.286-48.148
		c-82.404-26.728-164.822-53.32-179.136-63.086c2.264,0.066,5.325,0.478,9.074,1.188l-11.679-4.251
		C1471.881,641.683,1471.005,642.102,1470.756,642.788z"/>
	<path fill="#FBAB53" d="M1778.362,700.434c-7.184-2.49-14.8-5.085-22.741-7.756
		C1763.556,695.437,1771.169,698.039,1778.362,700.434z"/>
	<path fill="#2919ED" d="M1787.409,562.281c-43.727-7.483-175.633-49.92-178.82-41.163c-3.66,10.029,165.272,56.486,201.04,73.525
		c-38.108-5.473-212.757-64.521-229.721-59.891l11.308,4.116c47.638,9.4,222.169,67.965,225.758,58.097
		c3.634-9.966-163.377-55.976-200.596-73.316c38.779,5.917,176.357,49.998,180.228,41.458l-151.94-55.302
		C1642.39,517.893,1749.413,546.545,1787.409,562.281z"/>
	<path fill="#AD8B67" d="M1423.304,919.847c-4.269,11.774,215.73,72.944,251.662,91.753c-39.31-5.795-238.6-79.262-242.683-68.041
		c-3.871,10.609,183.527,62.512,219.296,80.086c-32.7-4.311-154.413-42.317-190.467-46.972l23.071,8.397
		c62.707,15.076,181.127,52.619,174.421,38.919c-4.866-9.978-187.095-62.388-219.107-78.064
		c49.427,7.888,251.706,85.682,242.049,65.908c-5.495-11.266-222.049-73.755-251.93-89.914c8.443,0.947,24.728,5.209,45.339,11.277
		l-35.97-13.092C1429.664,918.278,1423.978,918.001,1423.304,919.847z"/>
	<path fill="#2FB331" d="M1528.866,572.201c-4.917,13.53,274.238,91.986,307.524,112.101
		c-40.235-2.72-323.329-105.198-328.505-91.007c-5.264,14.505,293.773,98.154,328.939,119.805
		c-39.36-4.13-306.364-112.754-335.867-110.053l16.022,5.831c44.306,11.449,158.077,55.784,238.641,83.799
		c7.941,2.672,15.557,5.266,22.741,7.756c40.675,13.548,67.91,20.528,63.955,12.435c-7.187-14.734-298.181-98.336-328.954-117.706
		c44.032,2.634,340.231,112.856,328.51,88.854c-6.735-13.809-274.691-90.702-307.145-109.801
		c21.798,2.345,114.547,36.045,192.13,62.536l-158.996-57.87C1545.022,572.174,1530.016,569.047,1528.866,572.201z"/>
	<path fill="#793149" d="M1503.967,606.236c3.157,0.321,7.561,1.234,13.013,2.643l-16.022-5.831
		c-1.444,0.132-2.321,0.531-2.572,1.222c-5.367,14.732,304.045,101.558,337.647,122.996
		c-40.302-2.982-344.337-122.32-349.846-107.213c-5.502,15.153,316.351,105.477,348.662,127.027
		c-37.443-1.261-330.732-109.537-361.541-105.579l11.679,4.251c68.177,12.91,367.06,125.731,354.927,100.862
		c-7.596-15.572-317.451-104.553-348.355-124.687c43.59,3.051,362.126,130.479,349.765,105.005l-171.212-62.316
		C1594.491,640.09,1519.19,615.766,1503.967,606.236z"/>
	<path fill="#F1854F" d="M1412.426,864.574c-1.542,4.245,23.894,14.589,60.86,27.485c7.822,2.605,16.18,5.467,24.922,8.513
		c83.333,27.975,200.527,63.329,223.521,76.648c-26.939-3.698-141.981-48.233-223.521-76.648c-8.729-2.93-17.083-5.779-24.922-8.513
		c-33.988-11.322-57.877-17.82-59.366-13.733c-4.823,13.253,263.747,88.7,297.214,108.249
		c-39.131-5.173-290.056-107.323-294.889-94.048c-4.646,12.79,250.604,84.371,283.379,103.282
		c-32.458-3.251-206.928-65.185-260.639-75.704l35.97,13.092c83.631,24.62,238.556,78.996,230.51,62.534
		c-1.675-3.434-20.964-11.138-48.808-20.893c-7.572-2.53-15.621-5.294-24.012-8.229c-76.922-25.894-189.805-60.349-210.25-71.949
		c27.504,3.792,133.22,45.006,210.25,71.949c8.503,2.862,16.562,5.619,24.012,8.229c38.14,12.741,64.141,19.491,60.335,11.707
		c-1.708-3.5-16.886-9.932-46.912-20.44c22.483,7.612,62.907,22.115,57.531,11.074c-0.112-0.229-0.3-0.477-0.553-0.74
		l-144.272-52.511c-72.686-23.602-148.662-47.879-164.607-57.394c3.573,0.34,8.635,1.351,14.924,2.914l-16.924-6.16
		C1414.029,863.317,1412.734,863.727,1412.426,864.574z M1419.944,880.449c24.675,3.377,150.47,51.048,231.23,79.158
		C1572.077,932.818,1440.149,892.229,1419.944,880.449z"/>
	<path fill="#AD0941" d="M1578.64,535.64c-4.165,11.419,208.653,70.731,244.294,89.092c-41.324-6.678-256.444-90.73-260.798-78.776
		c-4.532,12.455,232.58,78.272,266.898,97.315c-39.39-4.739-280.851-96.423-285.502-83.64
		c-4.705,12.924,258.13,86.898,290.365,105.812c-29.955-3.277-190.666-64.425-266.034-86.561l158.996,57.87
		c59.919,20.46,110.792,36.62,112.938,30.711c4.744-13.033-257.34-86.575-290.299-105.773
		c38.121,4.235,281.072,96.469,285.741,83.667c4.47-12.285-230.842-77.867-266.572-97.137
		c40.322,6.166,256.717,90.91,261.103,78.824c0.16-0.437-0.006-0.947-0.468-1.522l-145.592-52.991
		c-44.361-14.342-84.968-27.667-98.391-34.661c1.657,0.212,3.636,0.549,5.896,0.995l-11.308-4.116
		C1579.217,534.939,1578.788,535.233,1578.64,535.64z"/>
	<path fill="#E95F75" d="M1656.658,974.837c-7.451-2.611-15.51-5.367-24.012-8.229
		C1641.037,969.543,1649.086,972.308,1656.658,974.837z"/>
	<path fill="#310BF5" d="M1796.645,565.047c2.918-8.046-107.708-37.698-143.489-52.863c15.319,1.226,136.113,20.637,73.62,0.336
		c-5.596-1.818-13.162-4.275-14.829-5.13c-0.99-1.145-2.863-0.807-3.384,0.623c-1.093,3.022,3.367,3.813,21.895,9.905
		c-41.917-4.402-83.941-13.244-85.783-8.184c-0.008,0.022-0.004,0.047-0.01,0.07l151.94,55.302
		C1796.615,565.085,1796.637,565.068,1796.645,565.047z M1712.313,509.377c0-0.002,0.001-0.004,0.002-0.006
		C1712.314,509.373,1712.313,509.376,1712.313,509.377z M1712.315,509.37c0.001-0.001,0.001-0.003,0.002-0.004
		C1712.316,509.367,1712.316,509.368,1712.315,509.37z M1712.319,509.359c0,0.002-0.001,0.003-0.002,0.005
		C1712.318,509.362,1712.319,509.361,1712.319,509.359c0.01-0.026,0.018-0.052,0.026-0.077
		C1712.337,509.307,1712.329,509.333,1712.319,509.359z M1712.346,509.279c0,0,0.001-0.001,0.001-0.002
		C1712.347,509.278,1712.346,509.279,1712.346,509.279z"/>
	<path fill="#47B10B" d="M1799.51,760.227l36.606,13.324c-4.15-8.357-92.6-37.208-181.068-65.903l132.286,48.148
		C1791.636,757.331,1795.706,758.811,1799.51,760.227z"/>
	<path fill="#C5D335" d="M1445.368,693.899c8.111,16.63,342.496,112.451,372.192,133.331
		c-39.121-0.863-375.412-129.541-381.357-113.244c-1.33,3.656,4.188,7.671,36.773,19.771c-8.533-2.725-29.401-9.743-37.843-9.12
		l28.152,10.246c50.58,15.506,156.367,55.434,235.06,83.696c-16.173-5.36-33.545-11.037-51.368-16.838l161.009,58.602
		c-2.535-2.594-10.374-6.824-35.131-16.033c33.88,10.834,40.16,10.805,41.445,7.29c5.928-16.265-341.387-113.587-373.039-135.867
		c40.747,0.886,393.936,137.038,381.198,110.956c-8.094-16.597-342.778-112.569-372.211-133.345
		c17.759,0.244,98.08,26.81,180.343,53.917l-104.217-37.932C1476.156,694.025,1441.274,685.497,1445.368,693.899z M1809.125,849.772
		c-22.45-1.357-163.958-55.226-261.807-90.357C1646.536,792.296,1790.593,837.015,1809.125,849.772z"/>
	<path fill="#6FB3CD" d="M1831.172,774.086c-38.859-0.743-368.56-122.727-374.337-106.85
		c-5.879,16.097,336.947,112.174,368.389,134.19c-27.259-0.418-195.523-60.605-298.853-92.097l104.217,37.932
		c96.917,31.936,196.527,64.622,199.695,55.899c5.913-16.192-336.557-111.944-368.378-134.183
		c42.224,0.682,387.076,130.958,374.219,104.586c-0.002-0.004-0.006-0.009-0.008-0.013l-36.606-13.324
		C1815.252,766.087,1826.492,770.868,1831.172,774.086z"/>
	<path fill="#3B65CD" d="M1421.156,769.951c4.809,9.858,127.418,48.343,229.31,81.577l-107.676-39.191
		c-55.313-18.145-101.697-34.06-115.043-41.872l-6.83-2.486C1420.698,768.5,1420.765,769.152,1421.156,769.951z"/>
	<path fill="#9F2141" d="M1670.112,664.614l171.212,62.316c-0.001-0.003-0.002-0.005-0.003-0.008
		c-2.075-4.253-27.208-14.095-62.958-26.488c-7.192-2.396-14.806-4.997-22.741-7.756
		C1729.47,683.879,1699.769,674.232,1670.112,664.614z"/>
	<path fill="#4DC705" d="M1437.026,728.397c4.475,0.273,13.659,2.625,26.258,6.487l-28.152-10.246
		c-3.046,0.225-4.474,1.444-3.123,4.218c8.05,16.499,342.129,112.441,371.943,133.228c-39.354-1.381-372.129-131.561-378.009-115.38
		c-5.93,16.238,336.331,111.84,368.863,134.339c-41.758-1.575-366.734-130.131-373.891-113.062l6.83,2.486
		c-0.597-0.349-1.13-0.683-1.593-0.999c39.329,1.563,367.977,129.317,373.783,113.359c5.87-16.158-336.64-112.011-368.875-134.345
		c41.157,1.493,390.561,139.211,377.831,113.092c-0.181-0.371-0.465-0.775-0.908-1.227l-161.009-58.602
		C1555.71,772.037,1452.535,739.054,1437.026,728.397z"/>
	<path fill="#037DEF" d="M1418.433,781.548c-5.587,15.424,325.815,108.599,358.434,130.548
		c-39.303-1.878-355.934-123.798-361.577-108.287c-5.535,15.163,314.807,104.971,348.587,126.954
		c-30.322-2.215-213.257-72.321-302.438-99.518l206.083,75.008c60.458,20.548,106.484,34.212,101.576,24.145
		c-7.607-15.596-318.24-104.775-348.526-124.773c44.181,2.276,374.273,132.496,361.362,106.023
		c-1.83-3.751-20.81-11.672-49.192-21.863c-15.403-5.005-33.128-11.143-52.152-17.921c-98.885-32.978-237.157-75.363-256.855-88.453
		c27.353,1.993,159.203,53.66,256.855,88.453c19.27,6.426,37.043,12.495,52.152,17.921c31.52,10.243,53.303,15.74,56.573,12.28
		l-6.06-2.205C1739.112,895.058,1424.149,765.858,1418.433,781.548z"/>
	<path fill="#F33515" d="M1784.247,899.95c-0.314-0.022-0.644-0.052-0.992-0.09l6.06,2.205c0.55-0.582,0.584-1.414,0.043-2.524
		c-5.122-10.5-141.847-52.85-246.569-87.204l107.676,39.191C1715.529,872.75,1772.146,891.831,1784.247,899.95z"/>
	<path fill="#990903" d="M1473.285,892.059c7.839,2.735,16.192,5.583,24.922,8.513
		C1489.465,897.526,1481.107,894.664,1473.285,892.059z"/>
	<path fill="#170B39" d="M1683.711,572.532l145.592,52.991C1822.418,616.949,1748.999,593.639,1683.711,572.532z"/>
	<path fill="#9BA997" d="M463.599,941.16c-1.112-2.279-6.081-5.933-28.999-14.889c8.965,2.695,29.83,9.656,31.866,4.073
		C472.95,912.516,78.07,801.441,48.678,778.215c36.88-0.957,394.238,137.761,419.933,128.315l-6.667-2.427
		c-51.396-5.686-411.782-144.677-418.012-127.55c-1.394,3.834,5.122,8.046,32.246,18.497c-9.053-2.684-34.358-10.388-29.856-1.156
		c8.907,18.26,384.259,126.051,412.629,147.93c-23.462,0-157.75-49.765-265.956-87.094l207.925,75.678
		C441.369,942.934,467.319,948.794,463.599,941.16z M461.641,928.619c-21.063-0.249-169.358-56.904-274.907-95.398
		C293.868,868.432,445.047,915.782,461.641,928.619z M50.996,793.251c21.001,0.286,167.142,56.066,272.542,94.542
		C217.583,852.955,67.643,806.003,50.996,793.251z"/>
	<path fill="#ED71B1" d="M69.213,859.725c1.848,0.102,4.509,0.562,7.89,1.34l-12.305-4.479c-1.164,0.654-1.448,1.814-0.569,3.616
		c5.861,12.016,182.444,65.545,291.557,102.295l-115.036-41.87C160.408,894.503,82.436,868.882,69.213,859.725z"/>
	<path fill="#7BF96B" d="M50.561,754.372l-9.096-3.311c-0.03,0.401,0.064,0.856,0.321,1.383
		c5.112,10.481,127.916,49.707,240.193,86.157l-109.399-39.818C114.547,779.645,66.61,763.052,50.561,754.372z"/>
	<path fill="#8B9D39" d="M469.73,903.553c-5.98-12.26-174.196-64.221-297.151-104.77l109.399,39.818
		c88.782,28.822,170.982,55.91,183.201,65.677c-0.882,0.026-1.967-0.035-3.235-0.175l6.667,2.427
		C470.034,906.007,470.453,905.035,469.73,903.553z"/>
	<path fill="#DD13E1" d="M353.557,609.117c3.349-9.203-142.46-49.124-178.605-65.438c30.798,2.744,96.162,16.839,98.212,11.202
		c1.714-4.709-24.85-9.649-32.979-13.851c-0.983-1.154-2.868-0.831-3.393,0.612c-1.106,3.039,3.43,3.86,22.547,10.14
		c-42.934-5.244-90.412-15.828-92.328-10.563c-3.349,9.202,142.139,49.026,178.54,65.409
		c-24.245-3.873-88.936-23.987-140.757-38.701l58.323,21.228C309.948,602.709,351.757,614.059,353.557,609.117z M240.541,543.008
		c0.001-0.002,0.001-0.004,0.002-0.006C240.542,543.004,240.542,543.006,240.541,543.008z M240.544,542.998
		c0-0.001,0-0.001,0.001-0.002C240.545,542.997,240.545,542.997,240.544,542.998z M240.547,542.992c0,0,0-0.001,0-0.001
		C240.547,542.991,240.547,542.991,240.547,542.992z M240.549,542.986c0,0,0-0.001,0-0.001
		C240.549,542.985,240.549,542.986,240.549,542.986z M240.551,542.98c0,0,0-0.001,0-0.001
		C240.551,542.979,240.551,542.98,240.551,542.98z M240.553,542.974C240.553,542.973,240.553,542.973,240.553,542.974
		C240.553,542.973,240.553,542.973,240.553,542.974z"/>
	<path fill="#DDADBB" d="M192.116,951.442l-92.318-33.601C117.397,926.091,152.021,938.178,192.116,951.442z"/>
	<path fill="#F5BB65" d="M356.687,1059.857c-12.631-6.955-46.604-18.426-83.728-30.475L356.687,1059.857z"/>
	<path fill="#F17BED" d="M168.03,651.579l-85.601-31.156C99.302,627.982,130.611,639.047,168.03,651.579z"/>
	<path fill="#8B6179" d="M152.895,988.447c8.638,1.812,22.33,5.951,38.807,11.361l-41.525-15.114
		c-3.158-0.3-5.051-0.005-5.419,1.006c-3.698,10.163,166.533,57.151,208.245,75.945c-44.985-10.155-180.582-63.121-183.99-53.763
		c-3.132,8.614,118.433,41.383,160.959,58.985c-47.713-8.661-101.108-26.682-96.145-16.533c1.465,3.006,37.224,12.744,42.596,15.683
		c1.454,1.92,4.46,0.064,3.372-2.165c-0.792-1.623-3.502-2.495-26.416-9.973c56.652,12.022,84.849,21.312,86.686,16.262
		c3.104-8.537-117.321-41.131-160.456-58.778c48.574,11.825,178.912,62.471,182.23,53.348c0.424-1.163-1.451-2.815-5.153-4.853
		l-83.728-30.475C225.274,1013.906,172.398,997.478,152.895,988.447z M276.138,1064.128c-0.001,0.002-0.001,0.004-0.002,0.006
		C276.137,1064.132,276.137,1064.13,276.138,1064.128z M276.135,1064.136c0,0.001-0.001,0.002-0.001,0.003
		C276.134,1064.138,276.135,1064.137,276.135,1064.136z M276.133,1064.143c0,0,0,0.001,0,0.002
		C276.132,1064.144,276.133,1064.143,276.133,1064.143z M276.131,1064.149C276.13,1064.149,276.13,1064.15,276.131,1064.149
		C276.13,1064.15,276.13,1064.149,276.131,1064.149z M276.129,1064.155C276.128,1064.155,276.128,1064.155,276.129,1064.155
		C276.128,1064.155,276.128,1064.155,276.129,1064.155z"/>
	<path fill="#F5192F" d="M331.184,662.446l78.521,28.58C392.809,683.594,364.323,673.53,331.184,662.446z"/>
	<path fill="#997DE7" d="M413.672,680.939c4.886-13.415-269.413-90.517-301.729-109.921c36.673,3.308,272.306,87.854,276.828,75.434
		c4.226-11.616-213.928-72.437-249.619-91.013c19.451,2.633,74.508,19.403,123.964,33.716l-58.323-21.228
		c-39.078-11.096-70.836-19.12-72.411-14.794c-4.313,11.855,216.005,72.87,250.076,91.255
		c-39.465-4.334-271.82-87.755-276.32-75.383c-4.858,13.364,269.064,90.453,301.666,109.883
		c-36.99-4.389-243.705-86.399-300.707-98.003l60.066,21.862C260.643,634.59,409.863,691.4,413.672,680.939z"/>
	<path fill="#DF3B33" d="M378.617,1057.609c4.214-11.578-210.439-71.162-245.323-89.505c40.482,5.427,262.62,88.146,267.043,75.991
		c4.738-12.996-258.252-86.875-290.126-105.745c34.199,3.223,246.223,82.982,296.714,91.276L374.9,1017.97
		c-87.556-26.351-279.799-98.819-270.364-79.461c6.283,12.88,258.989,85.747,289.738,103.474
		c-41.194-4.823-277.328-94.319-267.412-74.012c5.351,10.969,209.993,69.923,244.369,87.043
		c-37.999-7.445-190.175-67.389-221.053-70.321l41.525,15.114C259.799,1022.167,375.471,1066.247,378.617,1057.609z"/>
	<path fill="#75D541" d="M462.28,794.18c-1.319-2.704-7.633-7.013-39.827-18.952c27.418,8.47,34.618,9.044,35.946,5.397
		c1.502-4.124-4.738-9.16-65.649-30.393C289.416,714.213,82.767,651.601,62.236,636.367
		c33.998,0.029,303.302,99.915,370.346,111.501l-27.335-9.949C306.509,709.855,62.346,620.846,57.323,634.645
		c-1.317,3.615,3.877,7.595,34.487,19.156c-11.172-3.501-43.48-14.164-38.465-3.882c8.743,17.923,375.606,123.234,404.24,144.901
		c-29.743-0.147-243.683-83.334-349.843-116.667l258.475,94.077C424.998,791.95,466.971,803.798,462.28,794.18z M453.431,778.863
		c-21.85-0.704-169.449-56.998-272.871-94.379C285.212,719.069,435.807,765.944,453.431,778.863z M58.106,649.328
		c21.952,0.636,172.885,58.304,277.204,95.931C228.805,710.085,75.595,662.359,58.106,649.328z"/>
	<path fill="#AD35DF" d="M447.328,745.633c-8.082-16.572-342.496-112.558-373.174-133.641
		c39.601,2.305,358.752,130.571,364.488,114.803c5.6-15.375-320.508-106.799-354.509-129.091
		c39.875,2.885,336.486,118.969,341.91,104.059c0.786-2.158-5.31-5.888-16.338-10.739l-78.521-28.58
		c-88.739-29.681-210.791-66.669-232.704-79.964c10.66,1.216,36.336,9.247,68.686,20.266l-60.066-21.862
		c-10.58-2.154-16.003-1.883-14.226,1.761c7.164,14.687,296.268,97.677,327.624,117.211
		c-42.772-3.515-353.42-126.087-341.571-101.791c7.731,15.848,323.803,106.591,354.42,126.883
		C391.046,722.188,56.508,586.56,69.13,612.443c0.875,1.795,5.579,4.521,13.299,7.979l85.601,31.156
		c104.043,34.845,255.274,81.018,274.443,94.623c-5.981-0.057-19.177-3.153-37.225-8.283l27.335,9.949
		C443.559,749.765,449.114,749.295,447.328,745.633z"/>
	<path fill="#870917" d="M470.266,845.629c-9.089-18.634-394.282-129.303-421.781-151.256
		c37.177-1.166,411.924,141.443,418.291,123.955c6.439-17.682-383.273-127.227-413.558-150.569
		c26.148,0.036,200.41,66.697,313.001,104.47l-258.475-94.077c-34.61-10.867-57.772-16.439-59.351-12.104
		c-6.371,17.512,384.713,127.922,413.628,150.623C421.03,817.76,29.737,666.008,43.933,695.101
		c9.098,18.647,394.515,129.364,421.801,151.272c-13.666,0.624-75.68-19.222-148.258-43.367l94.727,34.478
		C450.148,848.44,473.899,853.075,470.266,845.629z"/>
	<path fill="#612D1D" d="M417.647,1029.065c5.242-14.388-289.735-96.805-324.53-118.227
		c40.877,3.717,331.991,118.52,337.334,103.831c5.535-15.203-316.528-105.478-349.563-127.336
		c39.732,2.008,356.801,124.163,362.455,108.623c0.181-0.497,0.244-1.005,0.118-1.547l-16.614-6.047
		c5.258,2.292,9.136,4.243,11.36,5.787c-38.695-1.607-356.932-124.183-362.594-108.631
		c-5.475,15.068,315.565,105.383,349.401,127.232c-40.187-3.292-332.118-118.655-337.51-103.846
		c-0.691,1.896,3.838,4.974,12.294,8.938l92.318,33.601c86.748,28.699,199.084,62.908,219.887,75.668
		c-6.813-0.585-19.949-3.978-37.103-9.14l32.025,11.656C413.288,1030.672,417.093,1030.586,417.647,1029.065z"/>
	<path fill="#6D4B9B" d="M395.238,972.04c19.094,6.335,60.259,20.737,54.655,9.243C441.56,964.201,92.179,863.765,63.201,842.719
		c38.631,0.589,388.963,137.817,395.046,121.083C464.553,946.513,86.471,840.339,56,817.33
		c29.105,0.031,237.834,79.918,344.918,113.078l-207.925-75.678c-81.169-28.002-147.664-49.007-141.689-36.757
		c8.704,17.846,373.067,122.402,402.044,144.099c-38.08-0.348-389.021-137.831-395.115-121.084c-1.461,4.013,4.611,8.8,58.69,27.833
		c-14.378-4.747-45.894-15.737-52.125-12.234l12.305,4.479c39.767,9.145,179.376,62.27,272.4,95.2
		c-32.411-10.873-70.845-23.311-108.753-35.638l115.036,41.87c30.908,10.41,56.397,19.472,71.062,25.865l16.614,6.047
		C442.637,990.869,433.641,985.818,395.238,972.04z M155.621,882.071c104.623,35.087,270,85.978,289.358,99.718
		C421.01,980.577,256.757,917.596,155.621,882.071z"/>
	<path fill="#BFF35F" d="M46.312,751.7c36.964-1.327,418.724,143.845,425.153,126.203c6.644-18.243-395.94-131.096-425.355-154.882
		c29.483-1.205,256.736,82.885,366.092,114.462l-94.727-34.478c-121.268-40.344-272.03-92.693-276.057-81.626
		c-6.612,18.186,396.139,131.285,425.353,154.881c-37.627,1.474-423.756-146.17-425.307-125.198l9.096,3.311
		C48.718,753.376,47.281,752.48,46.312,751.7z"/>
</g>
</svg>
